<svg width="73" height="102" viewBox="0 0 73 102" fill="none" xmlns="http://www.w3.org/2000/svg">
<path d="M56.5 64V29.244L60.496 26.936C61.7146 26.2343 62.7265 25.2236 63.4295 24.0057C64.1325 22.7879 64.5018 21.4062 64.5 20V16C64.5 13.8783 63.6571 11.8434 62.1569 10.3431C60.6566 8.84285 58.6217 8 56.5 8H16.5C14.3783 8 12.3434 8.84285 10.8431 10.3431C9.34286 11.8434 8.5 13.8783 8.5 16V20C8.5 22.892 10.044 25.508 12.504 26.936L16.5 29.24V64H56.5ZM64.5 64C64.5 66.1217 63.6571 68.1566 62.1569 69.6569C60.6566 71.1571 58.6217 72 56.5 72H16.5C14.3783 72 12.3434 71.1571 10.8431 69.6569C9.34286 68.1566 8.5 66.1217 8.5 64V33.86C6.06662 32.456 4.04603 30.4358 2.64162 28.0027C1.23722 25.5695 0.49856 22.8094 0.500002 20V16C0.500002 11.7565 2.18571 7.68687 5.18629 4.68629C8.18687 1.68571 12.2565 0 16.5 0H56.5C60.7435 0 64.8131 1.68571 67.8137 4.68629C70.8143 7.68687 72.5 11.7565 72.5 16V20C72.5 25.92 69.284 31.092 64.5 33.86V64Z" fill="#8C8E8F"/>
<path d="M9.9 102C9.75333 102 9.63333 101.953 9.54 101.86C9.44667 101.767 9.4 101.647 9.4 101.5V88.5C9.4 88.3533 9.44667 88.2333 9.54 88.14C9.63333 88.0467 9.75333 88 9.9 88H16C17.1467 88 18.0867 88.16 18.82 88.48C19.5533 88.8 20.0933 89.26 20.44 89.86C20.8 90.4467 20.98 91.1467 20.98 91.96C20.98 92.44 20.8867 92.8667 20.7 93.24C20.5267 93.6 20.3067 93.9 20.04 94.14C19.7867 94.38 19.5467 94.5533 19.32 94.66C19.8267 94.9 20.2733 95.2933 20.66 95.84C21.06 96.3867 21.26 97.0267 21.26 97.76C21.26 98.64 21.06 99.4 20.66 100.04C20.2733 100.667 19.7 101.153 18.94 101.5C18.1933 101.833 17.2733 102 16.18 102H9.9ZM12.98 99.4H15.78C16.3533 99.4 16.7867 99.2333 17.08 98.9C17.3733 98.5667 17.52 98.1867 17.52 97.76C17.52 97.2933 17.3667 96.9 17.06 96.58C16.7667 96.26 16.34 96.1 15.78 96.1H12.98V99.4ZM12.98 93.56H15.6C16.1467 93.56 16.5533 93.42 16.82 93.14C17.1 92.86 17.24 92.5 17.24 92.06C17.24 91.6333 17.1 91.2867 16.82 91.02C16.5533 90.74 16.1467 90.6 15.6 90.6H12.98V93.56ZM24.482 102C24.3354 102 24.2154 101.953 24.122 101.86C24.0287 101.767 23.982 101.647 23.982 101.5V88.5C23.982 88.3533 24.0287 88.2333 24.122 88.14C24.2154 88.0467 24.3354 88 24.482 88H29.922C31.642 88 32.9954 88.4 33.982 89.2C34.982 89.9867 35.482 91.1067 35.482 92.56C35.482 93.5067 35.2487 94.3067 34.782 94.96C34.3287 95.6133 33.7287 96.1067 32.982 96.44L35.742 101.36C35.782 101.44 35.802 101.513 35.802 101.58C35.802 101.687 35.7554 101.787 35.662 101.88C35.582 101.96 35.482 102 35.362 102H32.722C32.4687 102 32.282 101.94 32.162 101.82C32.042 101.687 31.9554 101.567 31.902 101.46L29.622 97.06H27.562V101.5C27.562 101.647 27.5154 101.767 27.422 101.86C27.3287 101.953 27.2087 102 27.062 102H24.482ZM27.562 94.24H29.882C30.5087 94.24 30.9754 94.0867 31.282 93.78C31.602 93.4733 31.762 93.0533 31.762 92.52C31.762 92 31.6087 91.58 31.302 91.26C31.0087 90.94 30.5354 90.78 29.882 90.78H27.562V94.24ZM38.8102 102C38.6635 102 38.5435 101.953 38.4502 101.86C38.3568 101.767 38.3102 101.647 38.3102 101.5V88.5C38.3102 88.3533 38.3568 88.2333 38.4502 88.14C38.5435 88.0467 38.6635 88 38.8102 88H48.1502C48.2968 88 48.4168 88.0467 48.5102 88.14C48.6035 88.2333 48.6502 88.3533 48.6502 88.5V90.38C48.6502 90.5267 48.6035 90.6467 48.5102 90.74C48.4168 90.8333 48.2968 90.88 48.1502 90.88H41.7702V93.58H47.7102C47.8568 93.58 47.9768 93.6333 48.0702 93.74C48.1635 93.8333 48.2102 93.9533 48.2102 94.1V95.84C48.2102 95.9733 48.1635 96.0933 48.0702 96.2C47.9768 96.2933 47.8568 96.34 47.7102 96.34H41.7702V99.12H48.3102C48.4568 99.12 48.5768 99.1667 48.6702 99.26C48.7635 99.3533 48.8102 99.4733 48.8102 99.62V101.5C48.8102 101.647 48.7635 101.767 48.6702 101.86C48.5768 101.953 48.4568 102 48.3102 102H38.8102ZM52.0836 102C51.9369 102 51.8169 101.953 51.7236 101.86C51.6303 101.767 51.5836 101.647 51.5836 101.5V88.5C51.5836 88.3533 51.6303 88.2333 51.7236 88.14C51.8169 88.0467 51.9369 88 52.0836 88H57.2836C58.5903 88 59.7036 88.2133 60.6236 88.64C61.5436 89.0533 62.2503 89.6667 62.7436 90.48C63.2369 91.28 63.5036 92.2733 63.5436 93.46C63.5569 94.0467 63.5636 94.56 63.5636 95C63.5636 95.44 63.5569 95.9467 63.5436 96.52C63.4903 97.76 63.2236 98.7867 62.7436 99.6C62.2769 100.413 61.5903 101.02 60.6836 101.42C59.7903 101.807 58.6903 102 57.3836 102H52.0836ZM55.1636 99.12H57.2836C57.8569 99.12 58.3303 99.0333 58.7036 98.86C59.0903 98.6733 59.3769 98.3867 59.5636 98C59.7636 97.6133 59.8703 97.1067 59.8836 96.48C59.9103 96.0933 59.9236 95.7467 59.9236 95.44C59.9369 95.1333 59.9369 94.8267 59.9236 94.52C59.9236 94.2133 59.9103 93.8733 59.8836 93.5C59.8569 92.5933 59.6169 91.9333 59.1636 91.52C58.7236 91.0933 58.0636 90.88 57.1836 90.88H55.1636V99.12Z" fill="#8C8E8F"/>
</svg>
